<svg viewBox="0 0 200 200" xmlns="http://www.w3.org/2000/svg">
  <defs>
    <filter id="shadow" x="-20%" y="-20%" width="140%" height="140%">
      <feDropShadow dx="0" dy="4" stdDeviation="4" flood-color="rgba(0, 0, 0, 0.5)" />
    </filter>
  </defs>
  <path fill="#2C850E" d="M45.1,-47.2C59.8,-41.4,74.1,-28.5,78.6,-12.4C83.2,3.6,78,22.8,68.8,40.8C59.7,58.7,46.6,75.5,30.3,80.1C13.9,84.7,-5.7,77.1,-24.8,69.5C-43.8,61.9,-62.4,54.3,-71.4,40.4C-80.4,26.5,-79.9,6.2,-73.1,-9.6C-66.4,-25.4,-53.5,-36.9,-40.3,-42.9C-27,-49,-13.5,-49.7,0.8,-50.7C15.2,-51.7,30.3,-52.9,45.1,-47.2Z" transform="translate(100 100)" filter="url(#shadow)" />
</svg>
