          <svg viewBox="0 0 200 200" xmlns="http://www.w3.org/2000/svg">
            <defs>
              <filter id="shadow" x="-20%" y="-20%" width="140%" height="140%">
                <feDropShadow dx="0" dy="4" stdDeviation="4" flood-color="rgba(5, 5, 5, 0.5)" />
              </filter>
            </defs>
            <path fill="#2C850E" transform="translate(100 100)" filter="url(#shadow)">
              <animate attributeName="d" dur="8s" repeatCount="indefinite" values="
              M37.5,-43.1C50.1,-34.1,62.9,-23.7,65.9,-11C68.8,1.7,61.9,16.7,54.4,33.1C47,49.6,39,67.4,25.9,72.9C12.9,78.3,-5.3,71.4,-21.2,63.4C-37,55.3,-50.6,46.2,-56.9,33.6C-63.2,21.1,-62.3,5.1,-61.5,-12.8C-60.7,-30.7,-59.9,-50.6,-49.7,-60.1C-39.4,-69.6,-19.7,-68.7,-3.6,-64.3C12.4,-60,24.9,-52.2,37.5,-43.1Z;
              M51.3,-60.3C64.3,-50.2,71.1,-32,72.2,-14.4C73.3,3.2,68.7,20.1,59.3,32.1C49.8,44.1,35.5,51.2,21.7,53.7C7.9,56.1,-5.5,53.9,-17.5,49.1C-29.5,44.3,-40.2,36.8,-52.7,25.4C-65.2,14,-79.6,-1.3,-79.7,-16.4C-79.9,-31.6,-65.9,-46.7,-50.2,-56.3C-34.6,-65.9,-17.3,-70.1,0.9,-71.2C19.2,-72.3,38.3,-70.4,51.3,-60.3Z;
              M32.4,-41.9C42,-30.6,49.7,-20.4,52.8,-8.5C55.9,3.4,54.3,16.9,48,27.6C41.7,38.4,30.7,46.3,17.3,53.9C3.9,61.6,-11.9,68.9,-25.2,65.7C-38.5,62.4,-49.3,48.6,-53.6,34.3C-57.9,20,-55.6,5.3,-52.5,-8.6C-49.3,-22.6,-45.2,-35.7,-36.3,-47.1C-27.3,-58.5,-13.7,-68.2,-1.1,-66.8C11.4,-65.5,22.8,-53.2,32.4,-41.9Z;
              M37.5,-43.1C50.1,-34.1,62.9,-23.7,65.9,-11C68.8,1.7,61.9,16.7,54.4,33.1C47,49.6,39,67.4,25.9,72.9C12.9,78.3,-5.3,71.4,-21.2,63.4C-37,55.3,-50.6,46.2,-56.9,33.6C-63.2,21.1,-62.3,5.1,-61.5,-12.8C-60.7,-30.7,-59.9,-50.6,-49.7,-60.1C-39.4,-69.6,-19.7,-68.7,-3.6,-64.3C12.4,-60,24.9,-52.2,37.5,-43.1Z;"></animate>
            </path>

            <g transform="translate(65, 65)">
              <svg width="450" height="450" viewBox="0 0 100 100" fill="white">
                <path d="M0 1.146C0 .513.526 0 1.175 0h13.65C15.474 0 16 .513 16 1.146v13.708c0 .633-.526 1.146-1.175 1.146H1.175C.526 16 0 15.487 0 14.854zm4.943 12.248V6.169H2.542v7.225zm-1.2-8.212c.837 0 1.358-.554 1.358-1.248-.015-.709-.52-1.248-1.342-1.248S2.4 3.226 2.4 3.934c0 .694.521 1.248 1.327 1.248zm4.908 8.212V9.359c0-.216.016-.432.08-.586.173-.431.568-.878 1.232-.878.869 0 1.216.662 1.216 1.634v3.865h2.401V9.25c0-2.22-1.184-3.252-2.764-3.252-1.274 0-1.845.7-2.165 1.193v.025h-.016l.016-.025V6.169h-2.4c.03.678 0 7.225 0 7.225z"/>
              </svg>
            </g>
          </svg>