<svg width="375" height="321" viewBox="0 0 375 321" fill="none" xmlns="http://www.w3.org/2000/svg">
<g filter="url(#filter0_d_26_111)">
<path d="M154.442 100.447C185.91 120.179 213.492 155.5 206.788 178.001C190.42 194.442 145.856 183.857 114.478 164.181C83.0994 144.505 61.8319 87.1065 61.8319 87.1065C61.8319 87.1065 122.975 80.7154 154.442 100.447Z" fill="url(#paint0_linear_26_111)"/>
<path d="M153.152 142.572C177.077 162.648 211.064 181.851 211.064 181.851C211.064 181.851 162.587 156.535 150.503 146.797C144.886 142.27 125.217 128.74 121.725 125.807C118.232 122.874 93.9523 107.221 87.2529 104.216C74.7345 98.6004 129.226 122.497 153.152 142.572Z" fill="url(#paint1_linear_26_111)"/>
<path d="M219.963 93.9188C194.797 121.236 177.483 162.571 189.872 182.514C209.99 194.069 250.197 172.129 275.291 144.889C300.386 117.649 305.798 56.6767 305.798 56.6767C305.798 56.6767 245.129 66.6014 219.963 93.9188Z" fill="url(#paint2_linear_26_111)"/>
<path d="M228.551 135.397C213.282 158.314 188.736 182.323 188.736 182.323C188.736 182.323 224.383 149.982 232.218 138.775C235.86 133.566 249.323 117.454 251.551 114.107C253.779 110.759 270.722 91.8323 275.799 87.8158C285.287 80.3106 243.819 112.479 228.551 135.397Z" fill="url(#paint3_linear_26_111)"/>
<g filter="url(#filter1_d_26_111)">
<mask id="path-5-outside-1_26_111" maskUnits="userSpaceOnUse" x="157" y="-2" width="68" height="188" fill="black">
<rect fill="white" x="157" y="-2" width="68" height="188"/>
<path fill-rule="evenodd" clip-rule="evenodd" d="M159.102 3.97958C166.626 -4.97448 172 3.97958 172 3.97958V69.1453C172 69.2524 171.99 69.3698 171.971 69.4962C173.827 78.3027 181.641 84.9135 191 84.9135C200.358 84.9135 208.173 78.3028 210.029 69.4964C210.01 69.3699 210 69.2525 210 69.1453V69V8.68345V3.97958C210 3.97958 215.374 -4.97448 222.898 3.97958C222.898 3.97958 225.378 51.1074 222.898 69.1453C222.368 72.995 221.477 75.3613 220.403 76.6678C217.73 83.7579 212.565 89.6265 205.977 93.2066C201.738 96.2442 198.396 100.998 198.367 105.212C198.367 105.212 198.367 105.212 198.367 105.212V177.934C198.367 181.533 195.449 184.451 191.85 184.451C188.251 184.451 185.333 181.533 185.333 177.934V105.212L185.333 105.212C185.31 101.748 183.046 97.9181 179.886 94.9774C171.466 91.7919 164.773 85.0922 161.597 76.6679C160.523 75.3615 159.632 72.9952 159.102 69.1453C156.622 51.1074 159.102 3.97958 159.102 3.97958ZM196 67.3741C196 67.3741 191.417 75.5324 185 67.3741V8H185V6.62589C191.417 -1.53237 196 6.62589 196 6.62589V66L196 67.3741Z"/>
</mask>
<path fill-rule="evenodd" clip-rule="evenodd" d="M159.102 3.97958C166.626 -4.97448 172 3.97958 172 3.97958V69.1453C172 69.2524 171.99 69.3698 171.971 69.4962C173.827 78.3027 181.641 84.9135 191 84.9135C200.358 84.9135 208.173 78.3028 210.029 69.4964C210.01 69.3699 210 69.2525 210 69.1453V69V8.68345V3.97958C210 3.97958 215.374 -4.97448 222.898 3.97958C222.898 3.97958 225.378 51.1074 222.898 69.1453C222.368 72.995 221.477 75.3613 220.403 76.6678C217.73 83.7579 212.565 89.6265 205.977 93.2066C201.738 96.2442 198.396 100.998 198.367 105.212C198.367 105.212 198.367 105.212 198.367 105.212V177.934C198.367 181.533 195.449 184.451 191.85 184.451C188.251 184.451 185.333 181.533 185.333 177.934V105.212L185.333 105.212C185.31 101.748 183.046 97.9181 179.886 94.9774C171.466 91.7919 164.773 85.0922 161.597 76.6679C160.523 75.3615 159.632 72.9952 159.102 69.1453C156.622 51.1074 159.102 3.97958 159.102 3.97958ZM196 67.3741C196 67.3741 191.417 75.5324 185 67.3741V8H185V6.62589C191.417 -1.53237 196 6.62589 196 6.62589V66L196 67.3741Z" fill="white" shape-rendering="crispEdges"/>
<path d="M172 3.97958H173V3.70253L172.857 3.46497L172 3.97958ZM159.102 3.97958L158.337 3.33628L158.121 3.59264L158.104 3.92702L159.102 3.97958ZM171.971 69.4962L170.982 69.3483L170.956 69.5263L170.993 69.7024L171.971 69.4962ZM210.029 69.4964L211.007 69.7026L211.044 69.5265L211.018 69.3484L210.029 69.4964ZM210 3.97958L209.143 3.46497L209 3.70253V3.97958H210ZM222.898 3.97958L223.896 3.92702L223.879 3.59264L223.663 3.33628L222.898 3.97958ZM222.898 69.1453L221.907 69.0091L222.898 69.1453ZM220.403 76.6678L219.631 76.0328L219.526 76.1604L219.468 76.315L220.403 76.6678ZM205.977 93.2066L205.5 92.3279L205.445 92.3576L205.395 92.3937L205.977 93.2066ZM198.367 105.212V106.212H199.361L199.367 105.219L198.367 105.212ZM198.367 105.212V104.212H197.367V105.212H198.367ZM185.333 105.212H186.333V104.317L185.444 104.218L185.333 105.212ZM185.333 105.212L184.333 105.219L184.339 106.108L185.223 106.206L185.333 105.212ZM179.886 94.9774L180.568 94.2454L180.424 94.1116L180.24 94.0421L179.886 94.9774ZM161.597 76.6679L162.532 76.3151L162.474 76.1605L162.369 76.0329L161.597 76.6679ZM159.102 69.1453L158.112 69.2815L159.102 69.1453ZM185 67.3741H184V67.7203L184.214 67.9923L185 67.3741ZM196 67.3741L196.872 67.8639L197 67.6358L197 67.3741L196 67.3741ZM185 8V7H184V8H185ZM185 8V9H186V8H185ZM185 6.62589L184.214 6.00768L184 6.27975V6.62589H185ZM196 6.62589H197V6.36423L196.872 6.13609L196 6.62589ZM196 66L197 66V66H196ZM172 3.97958C172.857 3.46497 172.857 3.46449 172.857 3.46398C172.857 3.46377 172.856 3.46322 172.856 3.46278C172.856 3.46192 172.855 3.46091 172.854 3.45977C172.853 3.45749 172.851 3.45466 172.849 3.45131C172.845 3.4446 172.84 3.43576 172.833 3.42491C172.819 3.4032 172.8 3.37339 172.776 3.33631C172.728 3.2622 172.659 3.1588 172.569 3.03287C172.391 2.78152 172.129 2.4376 171.79 2.05631C171.12 1.30134 170.113 0.360991 168.813 -0.276162C167.494 -0.922118 165.868 -1.25713 164.032 -0.763647C162.213 -0.274872 160.303 0.995641 158.337 3.33628L159.868 4.62288C161.663 2.48649 163.246 1.51849 164.551 1.16782C165.839 0.821862 166.967 1.04648 167.932 1.51978C168.916 2.00188 169.723 2.74042 170.295 3.38452C170.578 3.70276 170.795 3.98843 170.939 4.19178C171.011 4.2932 171.065 4.37343 171.099 4.42611C171.116 4.45242 171.129 4.4718 171.136 4.48343C171.14 4.48924 171.142 4.49311 171.143 4.49494C171.144 4.49585 171.144 4.49626 171.144 4.49614C171.144 4.49608 171.144 4.49588 171.143 4.49556C171.143 4.4954 171.143 4.49505 171.143 4.49497C171.143 4.4946 171.143 4.49419 172 3.97958ZM173 69.1453V3.97958H171V69.1453H173ZM172.96 69.6441C172.985 69.4791 173 69.3114 173 69.1453H171C171 69.1935 170.996 69.2605 170.982 69.3483L172.96 69.6441ZM191 83.9135C182.124 83.9135 174.71 77.6434 172.95 69.2901L170.993 69.7024C172.944 78.9621 181.159 85.9135 191 85.9135V83.9135ZM209.05 69.2902C207.29 77.6434 199.876 83.9135 191 83.9135V85.9135C200.841 85.9135 209.056 78.9622 211.007 69.7026L209.05 69.2902ZM209 69.1453C209 69.3115 209.015 69.4793 209.04 69.6444L211.018 69.3484C211.004 69.2606 211 69.1935 211 69.1453H209ZM209 69V69.1453H211V69H209ZM209 8.68345V69H211V8.68345H209ZM209 3.97958V8.68345H211V3.97958H209ZM223.663 3.33628C221.696 0.995641 219.787 -0.274872 217.968 -0.763647C216.132 -1.25713 214.505 -0.922118 213.187 -0.276162C211.887 0.360991 210.88 1.30134 210.21 2.05631C209.871 2.4376 209.609 2.78152 209.431 3.03287C209.341 3.1588 209.272 3.2622 209.224 3.33631C209.2 3.37339 209.181 3.4032 209.167 3.42491C209.16 3.43576 209.155 3.4446 209.151 3.45131C209.149 3.45466 209.147 3.45749 209.146 3.45977C209.145 3.46091 209.144 3.46192 209.144 3.46278C209.144 3.46322 209.143 3.46377 209.143 3.46398C209.143 3.46449 209.143 3.46497 210 3.97958C210.857 4.49419 210.857 4.4946 210.857 4.49497C210.857 4.49505 210.857 4.4954 210.857 4.49556C210.856 4.49588 210.856 4.49608 210.856 4.49614C210.856 4.49626 210.856 4.49585 210.857 4.49494C210.858 4.49311 210.86 4.48924 210.864 4.48343C210.871 4.4718 210.884 4.45242 210.901 4.42611C210.935 4.37343 210.988 4.2932 211.061 4.19178C211.205 3.98843 211.422 3.70276 211.705 3.38452C212.277 2.74042 213.084 2.00188 214.067 1.51978C215.033 1.04648 216.161 0.821862 217.449 1.16782C218.754 1.51849 220.337 2.48649 222.132 4.62288L223.663 3.33628ZM223.888 69.2815C225.141 60.1701 225.137 43.7977 224.827 29.7762C224.672 22.7497 224.439 16.2884 224.246 11.584C224.149 9.23156 224.061 7.31805 223.998 5.99232C223.967 5.32945 223.941 4.81349 223.924 4.46308C223.915 4.28787 223.908 4.15405 223.903 4.06393C223.901 4.01887 223.899 3.98474 223.898 3.96182C223.897 3.95037 223.897 3.94171 223.897 3.9359C223.897 3.933 223.896 3.9308 223.896 3.92932C223.896 3.92858 223.896 3.928 223.896 3.92763C223.896 3.92724 223.896 3.92702 222.898 3.97958C221.899 4.03214 221.899 4.03228 221.899 4.03261C221.899 4.03295 221.899 4.03346 221.899 4.03415C221.899 4.03553 221.899 4.03764 221.899 4.04045C221.9 4.04607 221.9 4.05453 221.901 4.06579C221.902 4.08832 221.904 4.12206 221.906 4.16672C221.911 4.25604 221.917 4.38905 221.926 4.56342C221.944 4.91217 221.969 5.42634 222 6.08735C222.063 7.40938 222.15 9.31865 222.247 11.6663C222.441 16.362 222.673 22.8101 222.828 29.8203C223.138 43.8722 223.134 60.0826 221.907 69.0091L223.888 69.2815ZM221.176 77.3028C222.429 75.778 223.352 73.1848 223.888 69.2815L221.907 69.0091C221.385 72.8052 220.525 74.9445 219.631 76.0328L221.176 77.3028ZM206.455 94.0853C213.252 90.3917 218.58 84.3375 221.339 77.0206L219.468 76.315C216.88 83.1784 211.879 88.8614 205.5 92.3279L206.455 94.0853ZM205.395 92.3937C203.181 93.9799 201.197 96.0161 199.756 98.2212C198.32 100.418 197.383 102.847 197.367 105.205L199.367 105.219C199.38 103.364 200.128 101.308 201.43 99.3153C202.727 97.3306 204.534 95.4709 206.56 94.0195L205.395 92.3937ZM198.367 104.212C198.34 104.212 198.315 104.213 198.295 104.215C198.274 104.216 198.257 104.218 198.243 104.22C198.23 104.221 198.219 104.223 198.213 104.224C198.21 104.225 198.207 104.225 198.205 104.225C198.205 104.225 198.204 104.226 198.203 104.226C198.203 104.226 198.203 104.226 198.203 104.226C198.203 104.226 198.203 104.226 198.203 104.226C198.203 104.226 198.203 104.226 198.203 104.226H198.203C198.203 104.226 198.203 104.226 198.203 104.226C198.203 104.226 198.204 104.226 198.205 104.225C198.207 104.225 198.21 104.225 198.213 104.224C198.219 104.223 198.23 104.221 198.243 104.22C198.257 104.218 198.274 104.216 198.294 104.215C198.315 104.213 198.34 104.212 198.367 104.212V106.212C198.395 106.212 198.419 106.211 198.44 106.209C198.46 106.208 198.478 106.206 198.491 106.204C198.505 106.203 198.515 106.201 198.522 106.2C198.525 106.2 198.528 106.199 198.529 106.199C198.53 106.199 198.531 106.199 198.531 106.199C198.531 106.199 198.531 106.199 198.531 106.199C198.532 106.199 198.532 106.199 198.532 106.199C198.532 106.198 198.532 106.198 198.532 106.198H198.532C198.532 106.198 198.532 106.198 198.532 106.198C198.532 106.198 198.531 106.199 198.529 106.199C198.528 106.199 198.525 106.2 198.522 106.2C198.515 106.201 198.505 106.203 198.491 106.204C198.478 106.206 198.46 106.208 198.44 106.209C198.419 106.211 198.395 106.212 198.367 106.212V104.212ZM199.367 177.934V105.212H197.367V177.934H199.367ZM191.85 185.451C196.002 185.451 199.367 182.086 199.367 177.934H197.367C197.367 180.981 194.897 183.451 191.85 183.451V185.451ZM184.333 177.934C184.333 182.086 187.699 185.451 191.85 185.451V183.451C188.803 183.451 186.333 180.981 186.333 177.934H184.333ZM184.333 105.212V177.934H186.333V105.212H184.333ZM185.223 106.206L185.223 106.206L185.444 104.218L185.444 104.218L185.223 106.206ZM179.205 95.7095C182.266 98.5577 184.313 102.144 184.333 105.219L186.333 105.205C186.307 101.352 183.827 97.2785 180.568 94.2454L179.205 95.7095ZM160.661 77.0208C163.939 85.7137 170.844 92.6256 179.532 95.9127L180.24 94.0421C172.089 90.9583 165.608 84.4706 162.532 76.3151L160.661 77.0208ZM158.112 69.2815C158.648 73.185 159.571 75.7783 160.824 77.303L162.369 76.0329C161.475 74.9447 160.615 72.8054 160.093 69.0091L158.112 69.2815ZM159.102 3.97958C158.104 3.92702 158.104 3.92724 158.104 3.92763C158.104 3.928 158.104 3.92858 158.104 3.92932C158.104 3.9308 158.103 3.933 158.103 3.9359C158.103 3.94171 158.103 3.95037 158.102 3.96182C158.101 3.98474 158.099 4.01887 158.097 4.06393C158.092 4.15405 158.085 4.28787 158.076 4.46308C158.059 4.81349 158.033 5.32945 158.002 5.99232C157.939 7.31805 157.851 9.23156 157.754 11.584C157.56 16.2884 157.328 22.7497 157.172 29.7762C156.863 43.7977 156.859 60.1701 158.112 69.2815L160.093 69.0091C158.866 60.0826 158.862 43.8722 159.172 29.8203C159.327 22.8101 159.559 16.362 159.753 11.6663C159.85 9.31865 159.937 7.40938 160 6.08735C160.031 5.42634 160.056 4.91217 160.074 4.56342C160.083 4.38905 160.089 4.25604 160.094 4.16672C160.096 4.12206 160.098 4.08832 160.099 4.06579C160.1 4.05453 160.1 4.04607 160.101 4.04045C160.101 4.03764 160.101 4.03553 160.101 4.03415C160.101 4.03346 160.101 4.03295 160.101 4.03261C160.101 4.03228 160.101 4.03214 159.102 3.97958ZM184.214 67.9923C185.897 70.1322 187.549 71.3175 189.15 71.777C190.775 72.2436 192.214 71.9244 193.37 71.3194C194.505 70.7253 195.377 69.853 195.952 69.1607C196.244 68.81 196.469 68.4938 196.623 68.2628C196.7 68.147 196.76 68.0518 196.801 67.9834C196.822 67.9492 196.838 67.9217 196.85 67.9015C196.856 67.8914 196.861 67.8832 196.864 67.8769C196.866 67.8737 196.868 67.8711 196.869 67.8689C196.87 67.8678 196.87 67.8669 196.871 67.866C196.871 67.8656 196.871 67.8651 196.871 67.8649C196.872 67.8644 196.872 67.8639 196 67.3741C195.128 66.8843 195.128 66.8839 195.129 66.8835C195.129 66.8834 195.129 66.8831 195.129 66.8829C195.129 66.8826 195.129 66.8824 195.129 66.8823C195.129 66.8821 195.129 66.8823 195.129 66.8831C195.128 66.8846 195.126 66.8879 195.123 66.893C195.117 66.9032 195.107 66.9205 195.093 66.944C195.064 66.9912 195.019 67.0633 194.958 67.1547C194.836 67.3379 194.653 67.5954 194.415 67.882C193.93 68.4645 193.256 69.1218 192.442 69.5475C191.65 69.9623 190.741 70.153 189.702 69.8547C188.638 69.5494 187.311 68.6952 185.786 66.7559L184.214 67.9923ZM184 8V67.3741H186V8H184ZM185 7H185V9H185V7ZM184 6.62589V8H186V6.62589H184ZM196 6.62589C196.872 6.13609 196.872 6.13563 196.871 6.13513C196.871 6.13492 196.871 6.13439 196.871 6.13397C196.87 6.13314 196.87 6.13218 196.869 6.13109C196.868 6.12893 196.866 6.12626 196.864 6.12311C196.861 6.11682 196.856 6.10858 196.85 6.0985C196.838 6.07834 196.822 6.05077 196.801 6.01657C196.76 5.9482 196.7 5.85303 196.623 5.73724C196.469 5.5062 196.244 5.19003 195.953 4.8393C195.377 4.14701 194.505 3.2747 193.37 2.68061C192.214 2.07561 190.775 1.75644 189.15 2.22295C187.549 2.68252 185.897 3.86782 184.214 6.00768L185.786 7.24411C187.311 5.30484 188.638 4.45058 189.702 4.1453C190.741 3.84698 191.65 4.0377 192.442 4.45248C193.256 4.87818 193.93 5.53554 194.415 6.11798C194.653 6.40461 194.836 6.66207 194.958 6.84532C195.019 6.93667 195.064 7.00881 195.093 7.05596C195.107 7.07952 195.117 7.09676 195.123 7.10698C195.126 7.11208 195.128 7.11543 195.129 7.11691C195.129 7.11765 195.129 7.11793 195.129 7.11773C195.129 7.11763 195.129 7.11741 195.129 7.11707C195.129 7.1169 195.129 7.11656 195.129 7.11647C195.128 7.1161 195.128 7.11569 196 6.62589ZM197 66V6.62589H195V66H197ZM197 67.3741L197 66L195 66L195 67.3741L197 67.3741Z" fill="black" fill-opacity="0.2" mask="url(#path-5-outside-1_26_111)"/>
</g>
</g>
<g filter="url(#filter2_d_26_111)">
<mask id="path-7-outside-2_26_111" maskUnits="userSpaceOnUse" x="28" y="213.628" width="325" height="56" fill="black">
<rect fill="white" x="28" y="213.628" width="325" height="56"/>
<path d="M32.6227 268.003C31.6727 268.003 30.8727 267.678 30.2227 267.028C29.5727 266.378 29.2477 265.578 29.2477 264.628V219.853C29.2477 218.503 29.7227 217.353 30.6727 216.403C31.6227 215.403 32.7727 214.903 34.1227 214.903H35.0977C35.9477 214.903 36.7227 215.103 37.4227 215.503C38.1227 215.903 38.7227 216.453 39.2227 217.153L68.0977 258.853V218.353C68.0977 217.403 68.4227 216.603 69.0727 215.953C69.7227 215.253 70.5227 214.903 71.4727 214.903C72.4227 214.903 73.2227 215.253 73.8727 215.953C74.5727 216.603 74.9227 217.403 74.9227 218.353V263.128C74.9227 264.478 74.4227 265.628 73.4227 266.578C72.4727 267.528 71.3227 268.003 69.9727 268.003H69.0727C68.2727 268.003 67.5227 267.828 66.8227 267.478C66.1227 267.078 65.5477 266.578 65.0977 265.978L36.0727 224.053V264.628C36.0727 265.578 35.7227 266.378 35.0227 267.028C34.3727 267.678 33.5727 268.003 32.6227 268.003ZM110.603 268.378C108.103 268.378 105.578 267.978 103.028 267.178C100.478 266.378 98.1527 265.153 96.0527 263.503C93.9527 261.803 92.2527 259.678 90.9527 257.128C89.7027 254.528 89.0777 251.478 89.0777 247.978V218.353C89.0777 217.403 89.4027 216.603 90.0527 215.953C90.7027 215.253 91.5027 214.903 92.4527 214.903C93.4027 214.903 94.2027 215.253 94.8527 215.953C95.5527 216.603 95.9027 217.403 95.9027 218.353V248.203C95.9027 251.303 96.6027 253.903 98.0027 256.003C99.4527 258.053 101.303 259.603 103.553 260.653C105.803 261.653 108.153 262.153 110.603 262.153C113.053 262.153 115.403 261.653 117.653 260.653C119.903 259.603 121.728 258.053 123.128 256.003C124.578 253.903 125.303 251.303 125.303 248.203V218.353C125.303 217.403 125.628 216.603 126.278 215.953C126.928 215.253 127.728 214.903 128.678 214.903C129.628 214.903 130.428 215.253 131.078 215.953C131.778 216.603 132.128 217.403 132.128 218.353V247.978C132.128 251.478 131.478 254.528 130.178 257.128C128.928 259.678 127.253 261.803 125.153 263.503C123.053 265.153 120.728 266.378 118.178 267.178C115.628 267.978 113.103 268.378 110.603 268.378ZM161.814 268.003C160.864 268.003 160.064 267.678 159.414 267.028C158.764 266.378 158.439 265.578 158.439 264.628V221.653H143.139C142.239 221.653 141.489 221.353 140.889 220.753C140.289 220.153 139.989 219.403 139.989 218.503C139.989 217.603 140.289 216.853 140.889 216.253C141.489 215.603 142.239 215.278 143.139 215.278H180.489C181.389 215.278 182.139 215.603 182.739 216.253C183.389 216.853 183.714 217.603 183.714 218.503C183.714 219.403 183.389 220.153 182.739 220.753C182.139 221.353 181.389 221.653 180.489 221.653H165.264V264.628C165.264 265.578 164.914 266.378 164.214 267.028C163.564 267.678 162.764 268.003 161.814 268.003ZM195.367 268.003C194.417 268.003 193.617 267.678 192.967 267.028C192.317 266.378 191.992 265.578 191.992 264.628V218.728C191.992 217.778 192.317 216.978 192.967 216.328C193.617 215.628 194.417 215.278 195.367 215.278H212.842C217.592 215.278 221.467 215.953 224.467 217.303C227.467 218.653 229.667 220.478 231.067 222.778C232.517 225.028 233.242 227.603 233.242 230.503C233.242 233.403 232.417 236.103 230.767 238.603C229.167 241.103 226.717 242.928 223.417 244.078C225.517 244.628 227.192 245.628 228.442 247.078C229.692 248.478 230.617 250.078 231.217 251.878C231.867 253.678 232.292 255.428 232.492 257.128C232.692 258.778 232.792 260.128 232.792 261.178V264.628C232.792 265.578 232.467 266.378 231.817 267.028C231.167 267.678 230.367 268.003 229.417 268.003C228.367 268.003 227.517 267.703 226.867 267.103C226.267 266.453 225.967 265.628 225.967 264.628V262.378C225.967 261.128 225.867 259.653 225.667 257.953C225.517 256.253 225.092 254.578 224.392 252.928C223.692 251.278 222.542 249.928 220.942 248.878C219.392 247.778 217.192 247.228 214.342 247.228H198.817V264.628C198.817 265.578 198.467 266.378 197.767 267.028C197.117 267.678 196.317 268.003 195.367 268.003ZM198.817 240.778H212.392C216.592 240.778 219.967 239.953 222.517 238.303C225.117 236.653 226.417 234.228 226.417 231.028C226.417 229.178 225.992 227.553 225.142 226.153C224.292 224.753 222.817 223.678 220.717 222.928C218.617 222.128 215.717 221.728 212.017 221.728H198.817V240.778ZM248.76 268.003C247.81 268.003 247.01 267.678 246.36 267.028C245.71 266.378 245.385 265.578 245.385 264.628V218.353C245.385 217.403 245.71 216.603 246.36 215.953C247.01 215.253 247.81 214.903 248.76 214.903C249.71 214.903 250.51 215.253 251.16 215.953C251.86 216.603 252.21 217.403 252.21 218.353V264.628C252.21 265.578 251.86 266.378 251.16 267.028C250.51 267.678 249.71 268.003 248.76 268.003ZM270.147 268.003C269.197 268.003 268.397 267.678 267.747 267.028C267.097 266.378 266.772 265.578 266.772 264.628V218.728C266.772 217.778 267.097 216.978 267.747 216.328C268.397 215.628 269.197 215.278 270.147 215.278H299.322C300.222 215.278 300.972 215.603 301.572 216.253C302.222 216.853 302.547 217.603 302.547 218.503C302.547 219.403 302.222 220.153 301.572 220.753C300.972 221.353 300.222 221.653 299.322 221.653H273.597V238.228H296.697C297.597 238.228 298.347 238.553 298.947 239.203C299.597 239.803 299.922 240.553 299.922 241.453C299.922 242.353 299.597 243.103 298.947 243.703C298.347 244.303 297.597 244.603 296.697 244.603H273.597V264.628C273.597 265.578 273.247 266.378 272.547 267.028C271.897 267.678 271.097 268.003 270.147 268.003ZM329.127 268.003C328.177 268.003 327.352 267.678 326.652 267.028C326.002 266.378 325.677 265.578 325.677 264.628V245.503L307.752 220.378C307.352 219.728 307.152 219.053 307.152 218.353C307.152 217.403 307.452 216.603 308.052 215.953C308.702 215.253 309.502 214.903 310.452 214.903C311.702 214.903 312.702 215.478 313.452 216.628L329.127 239.428L344.802 216.628C345.552 215.478 346.552 214.903 347.802 214.903C348.802 214.903 349.602 215.253 350.202 215.953C350.852 216.603 351.152 217.403 351.102 218.353C351.102 219.053 350.902 219.728 350.502 220.378L332.502 245.503V264.628C332.502 265.578 332.177 266.378 331.527 267.028C330.877 267.678 330.077 268.003 329.127 268.003Z"/>
</mask>
<path d="M32.6227 268.003C31.6727 268.003 30.8727 267.678 30.2227 267.028C29.5727 266.378 29.2477 265.578 29.2477 264.628V219.853C29.2477 218.503 29.7227 217.353 30.6727 216.403C31.6227 215.403 32.7727 214.903 34.1227 214.903H35.0977C35.9477 214.903 36.7227 215.103 37.4227 215.503C38.1227 215.903 38.7227 216.453 39.2227 217.153L68.0977 258.853V218.353C68.0977 217.403 68.4227 216.603 69.0727 215.953C69.7227 215.253 70.5227 214.903 71.4727 214.903C72.4227 214.903 73.2227 215.253 73.8727 215.953C74.5727 216.603 74.9227 217.403 74.9227 218.353V263.128C74.9227 264.478 74.4227 265.628 73.4227 266.578C72.4727 267.528 71.3227 268.003 69.9727 268.003H69.0727C68.2727 268.003 67.5227 267.828 66.8227 267.478C66.1227 267.078 65.5477 266.578 65.0977 265.978L36.0727 224.053V264.628C36.0727 265.578 35.7227 266.378 35.0227 267.028C34.3727 267.678 33.5727 268.003 32.6227 268.003ZM110.603 268.378C108.103 268.378 105.578 267.978 103.028 267.178C100.478 266.378 98.1527 265.153 96.0527 263.503C93.9527 261.803 92.2527 259.678 90.9527 257.128C89.7027 254.528 89.0777 251.478 89.0777 247.978V218.353C89.0777 217.403 89.4027 216.603 90.0527 215.953C90.7027 215.253 91.5027 214.903 92.4527 214.903C93.4027 214.903 94.2027 215.253 94.8527 215.953C95.5527 216.603 95.9027 217.403 95.9027 218.353V248.203C95.9027 251.303 96.6027 253.903 98.0027 256.003C99.4527 258.053 101.303 259.603 103.553 260.653C105.803 261.653 108.153 262.153 110.603 262.153C113.053 262.153 115.403 261.653 117.653 260.653C119.903 259.603 121.728 258.053 123.128 256.003C124.578 253.903 125.303 251.303 125.303 248.203V218.353C125.303 217.403 125.628 216.603 126.278 215.953C126.928 215.253 127.728 214.903 128.678 214.903C129.628 214.903 130.428 215.253 131.078 215.953C131.778 216.603 132.128 217.403 132.128 218.353V247.978C132.128 251.478 131.478 254.528 130.178 257.128C128.928 259.678 127.253 261.803 125.153 263.503C123.053 265.153 120.728 266.378 118.178 267.178C115.628 267.978 113.103 268.378 110.603 268.378ZM161.814 268.003C160.864 268.003 160.064 267.678 159.414 267.028C158.764 266.378 158.439 265.578 158.439 264.628V221.653H143.139C142.239 221.653 141.489 221.353 140.889 220.753C140.289 220.153 139.989 219.403 139.989 218.503C139.989 217.603 140.289 216.853 140.889 216.253C141.489 215.603 142.239 215.278 143.139 215.278H180.489C181.389 215.278 182.139 215.603 182.739 216.253C183.389 216.853 183.714 217.603 183.714 218.503C183.714 219.403 183.389 220.153 182.739 220.753C182.139 221.353 181.389 221.653 180.489 221.653H165.264V264.628C165.264 265.578 164.914 266.378 164.214 267.028C163.564 267.678 162.764 268.003 161.814 268.003ZM195.367 268.003C194.417 268.003 193.617 267.678 192.967 267.028C192.317 266.378 191.992 265.578 191.992 264.628V218.728C191.992 217.778 192.317 216.978 192.967 216.328C193.617 215.628 194.417 215.278 195.367 215.278H212.842C217.592 215.278 221.467 215.953 224.467 217.303C227.467 218.653 229.667 220.478 231.067 222.778C232.517 225.028 233.242 227.603 233.242 230.503C233.242 233.403 232.417 236.103 230.767 238.603C229.167 241.103 226.717 242.928 223.417 244.078C225.517 244.628 227.192 245.628 228.442 247.078C229.692 248.478 230.617 250.078 231.217 251.878C231.867 253.678 232.292 255.428 232.492 257.128C232.692 258.778 232.792 260.128 232.792 261.178V264.628C232.792 265.578 232.467 266.378 231.817 267.028C231.167 267.678 230.367 268.003 229.417 268.003C228.367 268.003 227.517 267.703 226.867 267.103C226.267 266.453 225.967 265.628 225.967 264.628V262.378C225.967 261.128 225.867 259.653 225.667 257.953C225.517 256.253 225.092 254.578 224.392 252.928C223.692 251.278 222.542 249.928 220.942 248.878C219.392 247.778 217.192 247.228 214.342 247.228H198.817V264.628C198.817 265.578 198.467 266.378 197.767 267.028C197.117 267.678 196.317 268.003 195.367 268.003ZM198.817 240.778H212.392C216.592 240.778 219.967 239.953 222.517 238.303C225.117 236.653 226.417 234.228 226.417 231.028C226.417 229.178 225.992 227.553 225.142 226.153C224.292 224.753 222.817 223.678 220.717 222.928C218.617 222.128 215.717 221.728 212.017 221.728H198.817V240.778ZM248.76 268.003C247.81 268.003 247.01 267.678 246.36 267.028C245.71 266.378 245.385 265.578 245.385 264.628V218.353C245.385 217.403 245.71 216.603 246.36 215.953C247.01 215.253 247.81 214.903 248.76 214.903C249.71 214.903 250.51 215.253 251.16 215.953C251.86 216.603 252.21 217.403 252.21 218.353V264.628C252.21 265.578 251.86 266.378 251.16 267.028C250.51 267.678 249.71 268.003 248.76 268.003ZM270.147 268.003C269.197 268.003 268.397 267.678 267.747 267.028C267.097 266.378 266.772 265.578 266.772 264.628V218.728C266.772 217.778 267.097 216.978 267.747 216.328C268.397 215.628 269.197 215.278 270.147 215.278H299.322C300.222 215.278 300.972 215.603 301.572 216.253C302.222 216.853 302.547 217.603 302.547 218.503C302.547 219.403 302.222 220.153 301.572 220.753C300.972 221.353 300.222 221.653 299.322 221.653H273.597V238.228H296.697C297.597 238.228 298.347 238.553 298.947 239.203C299.597 239.803 299.922 240.553 299.922 241.453C299.922 242.353 299.597 243.103 298.947 243.703C298.347 244.303 297.597 244.603 296.697 244.603H273.597V264.628C273.597 265.578 273.247 266.378 272.547 267.028C271.897 267.678 271.097 268.003 270.147 268.003ZM329.127 268.003C328.177 268.003 327.352 267.678 326.652 267.028C326.002 266.378 325.677 265.578 325.677 264.628V245.503L307.752 220.378C307.352 219.728 307.152 219.053 307.152 218.353C307.152 217.403 307.452 216.603 308.052 215.953C308.702 215.253 309.502 214.903 310.452 214.903C311.702 214.903 312.702 215.478 313.452 216.628L329.127 239.428L344.802 216.628C345.552 215.478 346.552 214.903 347.802 214.903C348.802 214.903 349.602 215.253 350.202 215.953C350.852 216.603 351.152 217.403 351.102 218.353C351.102 219.053 350.902 219.728 350.502 220.378L332.502 245.503V264.628C332.502 265.578 332.177 266.378 331.527 267.028C330.877 267.678 330.077 268.003 329.127 268.003Z" fill="url(#paint4_linear_26_111)" shape-rendering="crispEdges"/>
<path d="M30.2227 267.028L30.9298 266.321L30.2227 267.028ZM30.6727 216.403L31.3798 217.11L31.3888 217.101L31.3977 217.092L30.6727 216.403ZM37.4227 215.503L37.9188 214.635H37.9188L37.4227 215.503ZM39.2227 217.153L40.0448 216.584L40.0406 216.578L40.0364 216.572L39.2227 217.153ZM68.0977 258.853L67.2755 259.423L69.0977 262.054V258.853H68.0977ZM69.0727 215.953L69.7798 216.66L69.7929 216.647L69.8055 216.634L69.0727 215.953ZM73.8727 215.953L73.1399 216.634L73.1651 216.661L73.1922 216.686L73.8727 215.953ZM73.4227 266.578L72.7339 265.853L72.7246 265.862L72.7156 265.871L73.4227 266.578ZM66.8227 267.478L66.3265 268.346L66.3506 268.36L66.3754 268.373L66.8227 267.478ZM65.0977 265.978L64.2755 266.547L64.2863 266.563L64.2977 266.578L65.0977 265.978ZM36.0727 224.053L36.8948 223.484L35.0727 220.852V224.053H36.0727ZM35.0227 267.028L34.3422 266.295L34.3286 266.308L34.3156 266.321L35.0227 267.028ZM32.6227 267.003C31.928 267.003 31.3853 266.777 30.9298 266.321L29.5156 267.735C30.36 268.58 31.4174 269.003 32.6227 269.003V267.003ZM30.9298 266.321C30.4742 265.866 30.2477 265.323 30.2477 264.628H28.2477C28.2477 265.834 28.6711 266.891 29.5156 267.735L30.9298 266.321ZM30.2477 264.628V219.853H28.2477V264.628H30.2477ZM30.2477 219.853C30.2477 218.767 30.6183 217.872 31.3798 217.11L29.9655 215.696C28.827 216.835 28.2477 218.239 28.2477 219.853H30.2477ZM31.3977 217.092C32.1635 216.286 33.0534 215.903 34.1227 215.903V213.903C32.4919 213.903 31.0818 214.521 29.9477 215.714L31.3977 217.092ZM34.1227 215.903H35.0977V213.903H34.1227V215.903ZM35.0977 215.903C35.7834 215.903 36.3859 216.063 36.9265 216.371L37.9188 214.635C37.0594 214.144 36.1119 213.903 35.0977 213.903V215.903ZM36.9265 216.371C37.4929 216.695 37.9871 217.144 38.4089 217.734L40.0364 216.572C39.4582 215.763 38.7524 215.111 37.9188 214.635L36.9265 216.371ZM38.4005 217.723L67.2755 259.423L68.9198 258.284L40.0448 216.584L38.4005 217.723ZM69.0977 258.853V218.353H67.0977V258.853H69.0977ZM69.0977 218.353C69.0977 217.659 69.3242 217.116 69.7798 216.66L68.3656 215.246C67.5211 216.091 67.0977 217.148 67.0977 218.353H69.0977ZM69.8055 216.634C70.2674 216.136 70.8025 215.903 71.4727 215.903V213.903C70.2428 213.903 69.1779 214.37 68.3399 215.273L69.8055 216.634ZM71.4727 215.903C72.1428 215.903 72.6779 216.136 73.1399 216.634L74.6055 215.273C73.7674 214.37 72.7025 213.903 71.4727 213.903V215.903ZM73.1922 216.686C73.6897 217.148 73.9227 217.683 73.9227 218.353H75.9227C75.9227 217.123 75.4556 216.058 74.5531 215.22L73.1922 216.686ZM73.9227 218.353V263.128H75.9227V218.353H73.9227ZM73.9227 263.128C73.9227 264.197 73.5401 265.087 72.7339 265.853L74.1114 267.303C75.3053 266.169 75.9227 264.759 75.9227 263.128H73.9227ZM72.7156 265.871C71.9541 266.633 71.0589 267.003 69.9727 267.003V269.003C71.5864 269.003 72.9912 268.424 74.1298 267.285L72.7156 265.871ZM69.9727 267.003H69.0727V269.003H69.9727V267.003ZM69.0727 267.003C68.4243 267.003 67.8279 266.863 67.2699 266.584L66.3754 268.373C67.2175 268.794 68.121 269.003 69.0727 269.003V267.003ZM67.3188 266.61C66.7283 266.273 66.2598 265.861 65.8977 265.378L64.2977 266.578C64.8356 267.295 65.517 267.884 66.3265 268.346L67.3188 266.61ZM65.9199 265.409L36.8948 223.484L35.2505 224.622L64.2755 266.547L65.9199 265.409ZM35.0727 224.053V264.628H37.0727V224.053H35.0727ZM35.0727 264.628C35.0727 265.298 34.8397 265.833 34.3422 266.295L35.7031 267.761C36.6056 266.923 37.0727 265.858 37.0727 264.628H35.0727ZM34.3156 266.321C33.86 266.777 33.3174 267.003 32.6227 267.003V269.003C33.828 269.003 34.8853 268.58 35.7298 267.735L34.3156 266.321ZM103.028 267.178L103.327 266.224L103.028 267.178ZM96.0527 263.503L95.4235 264.28L95.4292 264.285L95.4349 264.29L96.0527 263.503ZM90.9527 257.128L90.0515 257.562L90.0565 257.572L90.0618 257.582L90.9527 257.128ZM90.0527 215.953L90.7598 216.66L90.7729 216.647L90.7855 216.634L90.0527 215.953ZM94.8527 215.953L94.1199 216.634L94.1451 216.661L94.1723 216.686L94.8527 215.953ZM98.0027 256.003L97.1707 256.558L97.1783 256.569L97.1863 256.581L98.0027 256.003ZM103.553 260.653L103.13 261.559L103.138 261.563L103.147 261.567L103.553 260.653ZM117.653 260.653L118.059 261.567L118.067 261.563L118.076 261.559L117.653 260.653ZM123.128 256.003L122.305 255.435L122.302 255.439L123.128 256.003ZM126.278 215.953L126.985 216.66L126.998 216.647L127.011 216.634L126.278 215.953ZM131.078 215.953L130.345 216.634L130.37 216.661L130.397 216.686L131.078 215.953ZM130.178 257.128L129.283 256.681L129.28 256.688L130.178 257.128ZM125.153 263.503L125.771 264.29L125.776 264.285L125.782 264.28L125.153 263.503ZM118.178 267.178L118.477 268.132L118.178 267.178ZM110.603 267.378C108.211 267.378 105.787 266.996 103.327 266.224L102.728 268.132C105.369 268.961 107.994 269.378 110.603 269.378V267.378ZM103.327 266.224C100.892 265.46 98.6754 264.292 96.6706 262.717L95.4349 264.29C97.6301 266.014 100.063 267.296 102.728 268.132L103.327 266.224ZM96.6819 262.726C94.6972 261.119 93.0838 259.107 91.8436 256.674L90.0618 257.582C91.4216 260.25 93.2082 262.487 95.4235 264.28L96.6819 262.726ZM91.854 256.695C90.6814 254.256 90.0777 251.36 90.0777 247.978H88.0777C88.0777 251.597 88.7241 254.801 90.0515 257.562L91.854 256.695ZM90.0777 247.978V218.353H88.0777V247.978H90.0777ZM90.0777 218.353C90.0777 217.659 90.3043 217.116 90.7598 216.66L89.3456 215.246C88.5012 216.091 88.0777 217.148 88.0777 218.353H90.0777ZM90.7855 216.634C91.2475 216.136 91.7825 215.903 92.4527 215.903V213.903C91.2229 213.903 90.158 214.37 89.3199 215.273L90.7855 216.634ZM92.4527 215.903C93.1229 215.903 93.658 216.136 94.1199 216.634L95.5855 215.273C94.7475 214.37 93.6825 213.903 92.4527 213.903V215.903ZM94.1723 216.686C94.6698 217.148 94.9027 217.683 94.9027 218.353H96.9027C96.9027 217.123 96.4357 216.058 95.5332 215.22L94.1723 216.686ZM94.9027 218.353V248.203H96.9027V218.353H94.9027ZM94.9027 248.203C94.9027 251.455 95.6384 254.26 97.1707 256.558L98.8348 255.449C97.567 253.547 96.9027 251.151 96.9027 248.203H94.9027ZM97.1863 256.581C98.7355 258.771 100.72 260.435 103.13 261.559L103.976 259.747C101.885 258.771 100.17 257.336 98.8192 255.426L97.1863 256.581ZM103.147 261.567C105.524 262.624 108.012 263.153 110.603 263.153V261.153C108.293 261.153 106.082 260.683 103.959 259.739L103.147 261.567ZM110.603 263.153C113.193 263.153 115.682 262.624 118.059 261.567L117.247 259.739C115.124 260.683 112.912 261.153 110.603 261.153V263.153ZM118.076 261.559C120.488 260.434 122.452 258.765 123.954 256.567L122.302 255.439C121.003 257.341 119.317 258.773 117.23 259.747L118.076 261.559ZM123.951 256.571C125.539 254.271 126.303 251.462 126.303 248.203H124.303C124.303 251.144 123.617 253.535 122.305 255.435L123.951 256.571ZM126.303 248.203V218.353H124.303V248.203H126.303ZM126.303 218.353C126.303 217.659 126.529 217.116 126.985 216.66L125.571 215.246C124.726 216.091 124.303 217.148 124.303 218.353H126.303ZM127.011 216.634C127.473 216.136 128.008 215.903 128.678 215.903V213.903C127.448 213.903 126.383 214.37 125.545 215.273L127.011 216.634ZM128.678 215.903C129.348 215.903 129.883 216.136 130.345 216.634L131.811 215.273C130.973 214.37 129.908 213.903 128.678 213.903V215.903ZM130.397 216.686C130.895 217.148 131.128 217.683 131.128 218.353H133.128C133.128 217.123 132.661 216.058 131.758 215.22L130.397 216.686ZM131.128 218.353V247.978H133.128V218.353H131.128ZM131.128 247.978C131.128 251.354 130.501 254.245 129.283 256.681L131.072 257.575C132.454 254.811 133.128 251.602 133.128 247.978H131.128ZM129.28 256.688C128.09 259.114 126.505 261.122 124.524 262.726L125.782 264.28C128.001 262.484 129.765 260.242 131.076 257.568L129.28 256.688ZM124.535 262.717C122.53 264.292 120.313 265.46 117.878 266.224L118.477 268.132C121.142 267.296 123.575 266.014 125.771 264.29L124.535 262.717ZM117.878 266.224C115.419 266.996 112.994 267.378 110.603 267.378V269.378C113.211 269.378 115.837 268.961 118.477 268.132L117.878 266.224ZM159.414 267.028L158.707 267.735L159.414 267.028ZM158.439 221.653H159.439V220.653H158.439V221.653ZM140.889 220.753L140.182 221.46L140.889 220.753ZM140.889 216.253L141.596 216.96L141.61 216.946L141.623 216.932L140.889 216.253ZM182.739 216.253L182.004 216.932L182.031 216.961L182.06 216.988L182.739 216.253ZM182.739 220.753L182.06 220.018L182.046 220.032L182.032 220.046L182.739 220.753ZM165.264 221.653V220.653H164.264V221.653H165.264ZM164.214 267.028L163.533 266.295L163.52 266.308L163.507 266.321L164.214 267.028ZM161.814 267.003C161.119 267.003 160.576 266.777 160.121 266.321L158.707 267.735C159.551 268.58 160.608 269.003 161.814 269.003V267.003ZM160.121 266.321C159.665 265.866 159.439 265.323 159.439 264.628H157.439C157.439 265.834 157.862 266.891 158.707 267.735L160.121 266.321ZM159.439 264.628V221.653H157.439V264.628H159.439ZM158.439 220.653H143.139V222.653H158.439V220.653ZM143.139 220.653C142.486 220.653 141.996 220.446 141.596 220.046L140.182 221.46C140.981 222.26 141.991 222.653 143.139 222.653V220.653ZM141.596 220.046C141.196 219.646 140.989 219.156 140.989 218.503H138.989C138.989 219.651 139.382 220.661 140.182 221.46L141.596 220.046ZM140.989 218.503C140.989 217.851 141.196 217.361 141.596 216.96L140.182 215.546C139.382 216.346 138.989 217.356 138.989 218.503H140.989ZM141.623 216.932C142.03 216.491 142.512 216.278 143.139 216.278V214.278C141.965 214.278 140.947 214.716 140.154 215.575L141.623 216.932ZM143.139 216.278H180.489V214.278H143.139V216.278ZM180.489 216.278C181.115 216.278 181.597 216.491 182.004 216.932L183.473 215.575C182.68 214.716 181.662 214.278 180.489 214.278V216.278ZM182.06 216.988C182.501 217.395 182.714 217.877 182.714 218.503H184.714C184.714 217.33 184.276 216.311 183.417 215.518L182.06 216.988ZM182.714 218.503C182.714 219.13 182.501 219.611 182.06 220.018L183.417 221.488C184.276 220.695 184.714 219.677 184.714 218.503H182.714ZM182.032 220.046C181.631 220.446 181.141 220.653 180.489 220.653V222.653C181.636 222.653 182.646 222.26 183.446 221.46L182.032 220.046ZM180.489 220.653H165.264V222.653H180.489V220.653ZM164.264 221.653V264.628H166.264V221.653H164.264ZM164.264 264.628C164.264 265.298 164.031 265.833 163.533 266.295L164.894 267.761C165.797 266.923 166.264 265.858 166.264 264.628H164.264ZM163.507 266.321C163.051 266.777 162.508 267.003 161.814 267.003V269.003C163.019 269.003 164.076 268.58 164.921 267.735L163.507 266.321ZM192.967 267.028L193.674 266.321L192.967 267.028ZM192.967 216.328L193.674 217.035L193.687 217.022L193.7 217.009L192.967 216.328ZM224.467 217.303L224.056 218.215H224.056L224.467 217.303ZM231.067 222.778L230.213 223.298L230.219 223.309L230.226 223.32L231.067 222.778ZM230.767 238.603L229.932 238.052L229.925 238.064L230.767 238.603ZM223.417 244.078L223.088 243.134L219.988 244.214L223.163 245.046L223.417 244.078ZM228.442 247.078L227.684 247.731L227.69 247.738L227.696 247.744L228.442 247.078ZM231.217 251.878L230.268 252.194L230.272 252.206L230.276 252.218L231.217 251.878ZM232.492 257.128L231.499 257.245L231.499 257.249L232.492 257.128ZM231.817 267.028L232.524 267.735L231.817 267.028ZM226.867 267.103L226.132 267.782L226.159 267.811L226.189 267.838L226.867 267.103ZM225.667 257.953L224.671 258.041L224.672 258.056L224.674 258.07L225.667 257.953ZM220.942 248.878L220.363 249.694L220.378 249.704L220.393 249.714L220.942 248.878ZM198.817 247.228V246.228H197.817V247.228H198.817ZM197.767 267.028L197.086 266.295L197.073 266.308L197.06 266.321L197.767 267.028ZM198.817 240.778H197.817V241.778H198.817V240.778ZM222.517 238.303L221.981 237.459L221.974 237.464L222.517 238.303ZM220.717 222.928L220.361 223.863L220.371 223.866L220.38 223.87L220.717 222.928ZM198.817 221.728V220.728H197.817V221.728H198.817ZM195.367 267.003C194.672 267.003 194.129 266.777 193.674 266.321L192.26 267.735C193.104 268.58 194.161 269.003 195.367 269.003V267.003ZM193.674 266.321C193.218 265.866 192.992 265.323 192.992 264.628H190.992C190.992 265.834 191.415 266.891 192.26 267.735L193.674 266.321ZM192.992 264.628V218.728H190.992V264.628H192.992ZM192.992 218.728C192.992 218.034 193.218 217.491 193.674 217.035L192.26 215.621C191.415 216.466 190.992 217.523 190.992 218.728H192.992ZM193.7 217.009C194.162 216.511 194.697 216.278 195.367 216.278V214.278C194.137 214.278 193.072 214.745 192.234 215.648L193.7 217.009ZM195.367 216.278H212.842V214.278H195.367V216.278ZM212.842 216.278C217.508 216.278 221.229 216.943 224.056 218.215L224.877 216.391C221.704 214.963 217.675 214.278 212.842 214.278V216.278ZM224.056 218.215C226.914 219.501 228.939 221.206 230.213 223.298L231.921 222.258C230.395 219.751 228.02 217.806 224.877 216.391L224.056 218.215ZM230.226 223.32C231.563 225.395 232.242 227.779 232.242 230.503H234.242C234.242 227.428 233.47 224.662 231.907 222.237L230.226 223.32ZM232.242 230.503C232.242 233.201 231.478 235.71 229.932 238.052L231.601 239.154C233.356 236.496 234.242 233.606 234.242 230.503H232.242ZM229.925 238.064C228.466 240.343 226.215 242.044 223.088 243.134L223.746 245.023C227.218 243.812 229.868 241.863 231.609 239.142L229.925 238.064ZM223.163 245.046C225.095 245.551 226.584 246.455 227.684 247.731L229.199 246.425C227.8 244.802 225.939 243.705 223.67 243.111L223.163 245.046ZM227.696 247.744C228.854 249.042 229.711 250.522 230.268 252.194L232.165 251.562C231.523 249.634 230.529 247.915 229.188 246.412L227.696 247.744ZM230.276 252.218C230.903 253.954 231.309 255.629 231.499 257.245L233.485 257.011C233.275 255.227 232.83 253.402 232.157 251.539L230.276 252.218ZM231.499 257.249C231.697 258.879 231.792 260.185 231.792 261.178H233.792C233.792 260.072 233.687 258.678 233.485 257.008L231.499 257.249ZM231.792 261.178V264.628H233.792V261.178H231.792ZM231.792 264.628C231.792 265.323 231.565 265.866 231.11 266.321L232.524 267.735C233.368 266.891 233.792 265.834 233.792 264.628H231.792ZM231.11 266.321C230.654 266.777 230.111 267.003 229.417 267.003V269.003C230.622 269.003 231.679 268.58 232.524 267.735L231.11 266.321ZM229.417 267.003C228.568 267.003 227.977 266.767 227.545 266.368L226.189 267.838C227.057 268.64 228.165 269.003 229.417 269.003V267.003ZM227.602 266.425C227.195 265.984 226.967 265.412 226.967 264.628H224.967C224.967 265.844 225.339 266.922 226.132 267.782L227.602 266.425ZM226.967 264.628V262.378H224.967V264.628H226.967ZM226.967 262.378C226.967 261.078 226.863 259.562 226.66 257.836L224.674 258.07C224.871 259.744 224.967 261.179 224.967 262.378H226.967ZM226.663 257.865C226.503 256.056 226.051 254.279 225.312 252.538L223.471 253.319C224.132 254.877 224.53 256.45 224.671 258.041L226.663 257.865ZM225.312 252.538C224.53 250.693 223.244 249.193 221.49 248.042L220.393 249.714C221.84 250.664 222.854 251.863 223.471 253.319L225.312 252.538ZM221.521 248.063C219.736 246.796 217.301 246.228 214.342 246.228V248.228C217.082 248.228 219.047 248.76 220.363 249.694L221.521 248.063ZM214.342 246.228H198.817V248.228H214.342V246.228ZM197.817 247.228V264.628H199.817V247.228H197.817ZM197.817 264.628C197.817 265.298 197.584 265.833 197.086 266.295L198.447 267.761C199.35 266.923 199.817 265.858 199.817 264.628H197.817ZM197.06 266.321C196.604 266.777 196.061 267.003 195.367 267.003V269.003C196.572 269.003 197.629 268.58 198.474 267.735L197.06 266.321ZM198.817 241.778H212.392V239.778H198.817V241.778ZM212.392 241.778C216.713 241.778 220.297 240.93 223.06 239.143L221.974 237.464C219.636 238.976 216.47 239.778 212.392 239.778V241.778ZM223.053 239.148C225.955 237.306 227.417 234.554 227.417 231.028H225.417C225.417 233.902 224.278 236.001 221.981 237.459L223.053 239.148ZM227.417 231.028C227.417 229.019 226.953 227.21 225.997 225.634L224.287 226.672C225.03 227.896 225.417 229.337 225.417 231.028H227.417ZM225.997 225.634C224.991 223.977 223.292 222.786 221.053 221.986L220.38 223.87C222.342 224.571 223.593 225.529 224.287 226.672L225.997 225.634ZM221.073 221.994C218.809 221.131 215.77 220.728 212.017 220.728V222.728C215.663 222.728 218.424 223.125 220.361 223.863L221.073 221.994ZM212.017 220.728H198.817V222.728H212.017V220.728ZM197.817 221.728V240.778H199.817V221.728H197.817ZM246.36 267.028L247.067 266.321L246.36 267.028ZM246.36 215.953L247.067 216.66L247.081 216.647L247.093 216.634L246.36 215.953ZM251.16 215.953L250.428 216.634L250.453 216.661L250.48 216.686L251.16 215.953ZM251.16 267.028L250.48 266.295L250.466 266.308L250.453 266.321L251.16 267.028ZM248.76 267.003C248.066 267.003 247.523 266.777 247.067 266.321L245.653 267.735C246.498 268.58 247.555 269.003 248.76 269.003V267.003ZM247.067 266.321C246.612 265.866 246.385 265.323 246.385 264.628H244.385C244.385 265.834 244.809 266.891 245.653 267.735L247.067 266.321ZM246.385 264.628V218.353H244.385V264.628H246.385ZM246.385 218.353C246.385 217.659 246.612 217.116 247.067 216.66L245.653 215.246C244.809 216.091 244.385 217.148 244.385 218.353H246.385ZM247.093 216.634C247.555 216.136 248.09 215.903 248.76 215.903V213.903C247.531 213.903 246.466 214.37 245.628 215.273L247.093 216.634ZM248.76 215.903C249.431 215.903 249.966 216.136 250.428 216.634L251.893 215.273C251.055 214.37 249.99 213.903 248.76 213.903V215.903ZM250.48 216.686C250.977 217.148 251.21 217.683 251.21 218.353H253.21C253.21 217.123 252.743 216.058 251.841 215.22L250.48 216.686ZM251.21 218.353V264.628H253.21V218.353H251.21ZM251.21 264.628C251.21 265.298 250.977 265.833 250.48 266.295L251.841 267.761C252.743 266.923 253.21 265.858 253.21 264.628H251.21ZM250.453 266.321C249.998 266.777 249.455 267.003 248.76 267.003V269.003C249.966 269.003 251.023 268.58 251.867 267.735L250.453 266.321ZM267.747 267.028L268.454 266.321L267.747 267.028ZM267.747 216.328L268.454 217.035L268.467 217.022L268.48 217.009L267.747 216.328ZM301.572 216.253L300.837 216.932L300.864 216.961L300.894 216.988L301.572 216.253ZM301.572 220.753L300.894 220.018L300.879 220.032L300.865 220.046L301.572 220.753ZM273.597 221.653V220.653H272.597V221.653H273.597ZM273.597 238.228H272.597V239.228H273.597V238.228ZM298.947 239.203L298.212 239.882L298.239 239.911L298.269 239.938L298.947 239.203ZM298.947 243.703L298.269 242.968L298.254 242.982L298.24 242.996L298.947 243.703ZM273.597 244.603V243.603H272.597V244.603H273.597ZM272.547 267.028L271.867 266.295L271.853 266.308L271.84 266.321L272.547 267.028ZM270.147 267.003C269.452 267.003 268.91 266.777 268.454 266.321L267.04 267.735C267.884 268.58 268.942 269.003 270.147 269.003V267.003ZM268.454 266.321C267.999 265.866 267.772 265.323 267.772 264.628H265.772C265.772 265.834 266.196 266.891 267.04 267.735L268.454 266.321ZM267.772 264.628V218.728H265.772V264.628H267.772ZM267.772 218.728C267.772 218.034 267.999 217.491 268.454 217.035L267.04 215.621C266.196 216.466 265.772 217.523 265.772 218.728H267.772ZM268.48 217.009C268.942 216.511 269.477 216.278 270.147 216.278V214.278C268.917 214.278 267.852 214.745 267.014 215.648L268.48 217.009ZM270.147 216.278H299.322V214.278H270.147V216.278ZM299.322 216.278C299.949 216.278 300.43 216.491 300.837 216.932L302.307 215.575C301.514 214.716 300.496 214.278 299.322 214.278V216.278ZM300.894 216.988C301.335 217.395 301.547 217.877 301.547 218.503H303.547C303.547 217.33 303.109 216.311 302.25 215.518L300.894 216.988ZM301.547 218.503C301.547 219.13 301.335 219.611 300.894 220.018L302.25 221.488C303.109 220.695 303.547 219.677 303.547 218.503H301.547ZM300.865 220.046C300.465 220.446 299.975 220.653 299.322 220.653V222.653C300.469 222.653 301.479 222.26 302.279 221.46L300.865 220.046ZM299.322 220.653H273.597V222.653H299.322V220.653ZM272.597 221.653V238.228H274.597V221.653H272.597ZM273.597 239.228H296.697V237.228H273.597V239.228ZM296.697 239.228C297.323 239.228 297.805 239.441 298.212 239.882L299.682 238.525C298.889 237.666 297.871 237.228 296.697 237.228V239.228ZM298.269 239.938C298.71 240.345 298.922 240.827 298.922 241.453H300.922C300.922 240.28 300.484 239.261 299.625 238.468L298.269 239.938ZM298.922 241.453C298.922 242.08 298.71 242.561 298.269 242.968L299.625 244.438C300.484 243.645 300.922 242.627 300.922 241.453H298.922ZM298.24 242.996C297.84 243.396 297.35 243.603 296.697 243.603V245.603C297.844 245.603 298.854 245.21 299.654 244.41L298.24 242.996ZM296.697 243.603H273.597V245.603H296.697V243.603ZM272.597 244.603V264.628H274.597V244.603H272.597ZM272.597 264.628C272.597 265.298 272.364 265.833 271.867 266.295L273.228 267.761C274.13 266.923 274.597 265.858 274.597 264.628H272.597ZM271.84 266.321C271.384 266.777 270.842 267.003 270.147 267.003V269.003C271.352 269.003 272.41 268.58 273.254 267.735L271.84 266.321ZM326.652 267.028L325.945 267.735L325.958 267.748L325.971 267.761L326.652 267.028ZM325.677 245.503H326.677V245.183L326.491 244.922L325.677 245.503ZM307.752 220.378L306.9 220.902L306.918 220.931L306.938 220.959L307.752 220.378ZM308.052 215.953L307.319 215.273L307.317 215.275L308.052 215.953ZM313.452 216.628L312.614 217.175L312.621 217.185L312.628 217.195L313.452 216.628ZM329.127 239.428L328.303 239.995L329.127 241.193L329.951 239.995L329.127 239.428ZM344.802 216.628L345.626 217.195L345.633 217.185L345.64 217.175L344.802 216.628ZM350.202 215.953L349.443 216.604L349.468 216.633L349.495 216.66L350.202 215.953ZM351.102 218.353L350.103 218.301L350.102 218.327V218.353H351.102ZM350.502 220.378L351.315 220.961L351.335 220.932L351.354 220.902L350.502 220.378ZM332.502 245.503L331.689 244.921L331.502 245.182V245.503H332.502ZM331.527 267.028L332.234 267.735L331.527 267.028ZM329.127 267.003C328.431 267.003 327.849 266.775 327.332 266.295L325.971 267.761C326.855 268.582 327.923 269.003 329.127 269.003V267.003ZM327.359 266.321C326.904 265.866 326.677 265.323 326.677 264.628H324.677C324.677 265.834 325.1 266.891 325.945 267.735L327.359 266.321ZM326.677 264.628V245.503H324.677V264.628H326.677ZM326.491 244.922L308.566 219.797L306.938 220.959L324.863 246.084L326.491 244.922ZM308.604 219.854C308.292 219.347 308.152 218.852 308.152 218.353H306.152C306.152 219.255 306.412 220.109 306.9 220.902L308.604 219.854ZM308.152 218.353C308.152 217.634 308.371 217.082 308.787 216.632L307.317 215.275C306.533 216.124 306.152 217.172 306.152 218.353H308.152ZM308.785 216.634C309.247 216.136 309.782 215.903 310.452 215.903V213.903C309.222 213.903 308.157 214.37 307.319 215.273L308.785 216.634ZM310.452 215.903C311.326 215.903 312.027 216.275 312.614 217.175L314.29 216.082C313.376 214.682 312.077 213.903 310.452 213.903V215.903ZM312.628 217.195L328.303 239.995L329.951 238.862L314.276 216.062L312.628 217.195ZM329.951 239.995L345.626 217.195L343.978 216.062L328.303 238.862L329.951 239.995ZM345.64 217.175C346.226 216.275 346.927 215.903 347.802 215.903V213.903C346.176 213.903 344.877 214.682 343.964 216.082L345.64 217.175ZM347.802 215.903C348.538 215.903 349.05 216.146 349.443 216.604L350.961 215.302C350.154 214.36 349.066 213.903 347.802 213.903V215.903ZM349.495 216.66C349.937 217.102 350.139 217.623 350.103 218.301L352.101 218.406C352.165 217.184 351.767 216.104 350.909 215.246L349.495 216.66ZM350.102 218.353C350.102 218.852 349.962 219.347 349.65 219.854L351.354 220.902C351.842 220.109 352.102 219.255 352.102 218.353H350.102ZM349.689 219.796L331.689 244.921L333.315 246.086L351.315 220.961L349.689 219.796ZM331.502 245.503V264.628H333.502V245.503H331.502ZM331.502 264.628C331.502 265.323 331.275 265.866 330.82 266.321L332.234 267.735C333.078 266.891 333.502 265.834 333.502 264.628H331.502ZM330.82 266.321C330.364 266.777 329.822 267.003 329.127 267.003V269.003C330.332 269.003 331.39 268.58 332.234 267.735L330.82 266.321Z" fill="black" fill-opacity="0.15" mask="url(#path-7-outside-2_26_111)"/>
</g>
<defs>
<filter id="filter0_d_26_111" x="38" y="-1.00014" width="299.254" height="218.628" filterUnits="userSpaceOnUse" color-interpolation-filters="sRGB">
<feFlood flood-opacity="0" result="BackgroundImageFix"/>
<feColorMatrix in="SourceAlpha" type="matrix" values="0 0 0 0 0 0 0 0 0 0 0 0 0 0 0 0 0 0 127 0" result="hardAlpha"/>
<feOffset dy="4"/>
<feGaussianBlur stdDeviation="2"/>
<feComposite in2="hardAlpha" operator="out"/>
<feColorMatrix type="matrix" values="0 0 0 0 0 0 0 0 0 0 0 0 0 0 0 0 0 0 0.25 0"/>
<feBlend mode="normal" in2="BackgroundImageFix" result="effect1_dropShadow_26_111"/>
<feBlend mode="normal" in="SourceGraphic" in2="effect1_dropShadow_26_111" result="shape"/>
</filter>
<filter id="filter1_d_26_111" x="153.8" y="-1.00014" width="78.4001" height="199.651" filterUnits="userSpaceOnUse" color-interpolation-filters="sRGB">
<feFlood flood-opacity="0" result="BackgroundImageFix"/>
<feColorMatrix in="SourceAlpha" type="matrix" values="0 0 0 0 0 0 0 0 0 0 0 0 0 0 0 0 0 0 127 0" result="hardAlpha"/>
<feMorphology radius="1" operator="dilate" in="SourceAlpha" result="effect1_dropShadow_26_111"/>
<feOffset dx="2" dy="8"/>
<feGaussianBlur stdDeviation="2.1"/>
<feComposite in2="hardAlpha" operator="out"/>
<feColorMatrix type="matrix" values="0 0 0 0 0 0 0 0 0 0 0 0 0 0 0 0 0 0 0.25 0"/>
<feBlend mode="normal" in2="BackgroundImageFix" result="effect1_dropShadow_26_111"/>
<feBlend mode="normal" in="SourceGraphic" in2="effect1_dropShadow_26_111" result="shape"/>
</filter>
<filter id="filter2_d_26_111" x="25.2477" y="214.903" width="329.929" height="61.475" filterUnits="userSpaceOnUse" color-interpolation-filters="sRGB">
<feFlood flood-opacity="0" result="BackgroundImageFix"/>
<feColorMatrix in="SourceAlpha" type="matrix" values="0 0 0 0 0 0 0 0 0 0 0 0 0 0 0 0 0 0 127 0" result="hardAlpha"/>
<feOffset dy="4"/>
<feGaussianBlur stdDeviation="2"/>
<feComposite in2="hardAlpha" operator="out"/>
<feColorMatrix type="matrix" values="0 0 0 0 0 0 0 0 0 0 0 0 0 0 0 0 0 0 0.25 0"/>
<feBlend mode="normal" in2="BackgroundImageFix" result="effect1_dropShadow_26_111"/>
<feBlend mode="normal" in="SourceGraphic" in2="effect1_dropShadow_26_111" result="shape"/>
</filter>
<linearGradient id="paint0_linear_26_111" x1="154.442" y1="100.447" x2="101" y2="185" gradientUnits="userSpaceOnUse">
<stop stop-color="#02542D"/>
<stop offset="1" stop-color="#05BA64"/>
</linearGradient>
<linearGradient id="paint1_linear_26_111" x1="150.286" y1="139.35" x2="145" y2="146.5" gradientUnits="userSpaceOnUse">
<stop stop-color="white"/>
<stop offset="1" stop-color="#999999"/>
</linearGradient>
<linearGradient id="paint2_linear_26_111" x1="305.59" y1="56.4851" x2="191" y2="184.016" gradientUnits="userSpaceOnUse">
<stop stop-color="#2B610A"/>
<stop offset="1" stop-color="#58C715"/>
</linearGradient>
<linearGradient id="paint3_linear_26_111" x1="276.702" y1="86.2519" x2="188.444" y2="182.055" gradientUnits="userSpaceOnUse">
<stop stop-color="white"/>
<stop offset="1" stop-color="#999999"/>
</linearGradient>
<linearGradient id="paint4_linear_26_111" x1="187" y1="170.628" x2="187.5" y2="320.628" gradientUnits="userSpaceOnUse">
<stop stop-color="#2B610A"/>
<stop offset="0.567745" stop-color="#FFFAFA"/>
</linearGradient>
</defs>
</svg>
