<svg width="309" height="444" viewBox="0 0 309 444" fill="none" xmlns="http://www.w3.org/2000/svg">
<g filter="url(#filter0_d_371_193)">
<path d="M259.606 134.028C259.606 134.028 265.892 87.9537 276.368 100.519C286.843 113.085 276.367 131.933 276.367 131.933L267.987 142.405L259.606 136.122L259.606 134.028Z" fill="#AF6973"/>
<path d="M234.464 148.688C234.464 148.688 255.416 125.65 259.606 129.839C263.797 134.027 276.368 136.122 274.272 144.499C272.177 152.876 228.179 180.102 228.179 180.102L234.464 148.688Z" fill="#FF833F"/>
<path opacity="0.1" d="M234.464 148.688C234.464 148.688 255.416 125.65 259.606 129.839C263.797 134.027 276.368 136.122 274.272 144.499C272.177 152.876 228.179 180.102 228.179 180.102L234.464 148.688Z" fill="black"/>
<path d="M115.041 146.594L115.041 163.348C115.041 163.348 112.945 201.045 125.516 198.951C138.087 196.856 131.802 165.442 131.802 165.442L129.707 146.594L115.041 146.594Z" fill="#AF6973"/>
<path d="M121.326 268.062C121.326 268.062 102.469 297.382 96.1839 299.476C89.8985 301.57 56.3759 320.419 52.1855 339.268L22.8532 376.965L37.5191 395.813C37.5191 395.813 104.564 324.607 123.421 318.324C142.277 312.041 161.134 280.627 161.134 280.627L121.326 268.062Z" fill="#AF6973"/>
<path d="M270.082 219.893C270.082 219.893 309.89 226.175 303.604 251.307C297.318 276.438 236.559 328.796 236.559 328.796L234.464 341.361L211.417 345.55L200.941 335.079L203.036 328.796C203.036 328.796 228.178 305.759 230.274 297.382C232.369 289.004 255.416 255.496 265.891 253.401L251.225 245.024L270.082 219.893Z" fill="#AF6973"/>
<path d="M29.1387 376.965C29.1387 376.965 37.5194 364.399 24.9485 366.493C12.3777 368.588 3.99709 370.682 3.99704 379.059C3.99698 387.436 14.4723 446.076 27.0432 441.887C39.6141 437.699 29.1385 418.85 29.1385 418.85C29.1385 418.85 35.424 402.096 39.6143 400.002C43.8046 397.907 43.8046 387.436 39.6144 387.436C35.4241 387.436 27.0436 381.153 29.1387 376.965Z" fill="#2F2E41"/>
<path d="M207.227 330.89C207.227 330.89 207.227 320.419 198.846 330.89C190.466 341.362 186.275 349.739 194.656 356.022C203.037 362.304 232.368 376.964 232.368 376.964C232.368 376.964 263.796 383.247 259.605 368.587C259.605 368.587 238.654 358.116 238.654 349.738C238.654 341.361 238.654 326.701 232.369 330.89C226.083 335.078 207.227 337.173 207.227 330.89Z" fill="#2F2E41"/>
<path d="M167.42 173.819C167.42 173.819 138.088 178.008 140.182 219.894C140.182 219.894 102.47 257.591 112.945 270.157C123.421 282.722 146.467 305.759 154.848 299.476C163.229 293.193 188.371 245.025 188.371 245.025C188.371 245.025 247.035 265.967 257.511 255.496C267.986 245.024 278.462 219.893 278.462 219.893L226.084 192.667L167.42 173.819Z" fill="#2F2E41"/>
<path d="M249.131 54.4454C235.245 54.4454 223.989 43.1938 223.989 29.3141C223.989 15.4344 235.246 4.18262 249.131 4.18253C263.016 4.18244 274.273 15.4341 274.273 29.3138C274.273 43.1935 263.016 54.4453 249.131 54.4454Z" fill="#AF6973"/>
<path d="M230.275 31.4081C230.275 31.4081 215.608 54.4453 211.418 56.5396C207.228 58.6339 240.75 79.5765 240.75 79.5765C240.75 79.5765 240.75 52.3508 251.226 46.0679L230.275 31.4081Z" fill="#AF6973"/>
<path d="M228.179 54.4452C228.179 54.4452 194.657 43.974 188.372 60.7283C182.086 77.4826 167.42 108.897 169.515 129.84C171.61 150.782 175.8 146.594 169.515 152.877C163.229 159.16 159.039 154.971 161.134 163.348C163.229 171.725 165.324 171.725 163.229 175.914C161.134 180.102 188.371 194.762 211.417 196.856L234.464 198.951C234.464 198.951 234.464 161.253 238.654 152.876C242.845 144.499 251.225 127.745 251.226 121.462L251.226 104.838C251.226 93.7735 248.337 82.9004 242.845 73.2936C242.845 73.2936 230.274 54.4452 228.179 54.4452Z" fill="#FF833F"/>
<path d="M203.037 62.8224C203.037 62.8224 125.517 69.1057 117.136 90.0486C108.755 110.992 104.565 152.877 112.945 152.877C121.326 152.877 131.802 157.066 133.897 152.877C135.992 148.689 144.373 106.803 146.468 106.803C148.563 106.803 211.418 100.519 211.418 100.519C211.418 100.519 238.655 67.0107 203.037 62.8224Z" fill="#FF833F"/>
<path d="M250.141 23.0834C250.141 23.0834 256.813 11.4936 265.153 21.5604C273.493 31.6271 287.06 13.1276 284.977 9.1802C282.894 5.23281 275.539 9.35772 262.935 5.23907C250.331 1.12043 226.051 -7.27007 221.984 20.1003C217.918 47.4706 227.602 44.6012 227.602 44.6012C227.602 44.6012 232.041 20.3482 236.054 27.3147L240.066 34.2812L243.546 35.1374L250.141 23.0834Z" fill="#2F2E41"/>
</g>
<defs>
<filter id="filter0_d_371_193" x="-0.00296783" y="0.730713" width="308.28" height="449.37" filterUnits="userSpaceOnUse" color-interpolation-filters="sRGB">
<feFlood flood-opacity="0" result="BackgroundImageFix"/>
<feColorMatrix in="SourceAlpha" type="matrix" values="0 0 0 0 0 0 0 0 0 0 0 0 0 0 0 0 0 0 127 0" result="hardAlpha"/>
<feOffset dy="4"/>
<feGaussianBlur stdDeviation="2"/>
<feComposite in2="hardAlpha" operator="out"/>
<feColorMatrix type="matrix" values="0 0 0 0 0 0 0 0 0 0 0 0 0 0 0 0 0 0 0.25 0"/>
<feBlend mode="normal" in2="BackgroundImageFix" result="effect1_dropShadow_371_193"/>
<feBlend mode="normal" in="SourceGraphic" in2="effect1_dropShadow_371_193" result="shape"/>
</filter>
</defs>
</svg>
