<svg width="893" height="2160" viewBox="0 0 893 2160" fill="none" xmlns="http://www.w3.org/2000/svg">
<path d="M116.198 -356.326L213.075 -270.62C309.952 -184.914 503.707 -13.5027 665.37 157.909C824.612 329.321 957.818 500.733 859.125 672.144C764.064 843.556 437.104 1014.97 342.043 1186.38C243.349 1357.79 376.555 1529.2 342.043 1700.61C309.952 1872.03 116.198 2043.44 19.321 2129.14L-77.5561 2214.85V2129.14C-77.5561 2043.44 -77.5561 1872.03 -77.5561 1700.61C-77.5561 1529.2 -77.5561 1357.79 -77.5561 1186.38C-77.5561 1014.97 -77.5561 843.556 -77.5561 672.144C-77.5561 500.733 -77.5561 329.321 -77.5561 157.909C-77.5561 -13.5027 -77.5561 -184.914 -77.5561 -270.62V-356.326H116.198Z" fill="#2C850E" fill-opacity="0.73"/>
</svg>
